<svg xmlns="http://www.w3.org/2000/svg" width="133.632" height="44.64" viewBox="0 0 133.632 44.64">
  <path id="Path_2" data-name="Path 2" d="M9.6.16A7.474,7.474,0,0,1,5.616-.928a7.489,7.489,0,0,1-2.8-3.152A10.864,10.864,0,0,1,1.792-8.96a19.8,19.8,0,0,1,2.08-9.008,16.315,16.315,0,0,1,6.144-6.656,18.2,18.2,0,0,1,9.76-2.512,23.92,23.92,0,0,1,3.152.224,17.242,17.242,0,0,1,3.056.672,1.185,1.185,0,0,1,.9,1.28,2.388,2.388,0,0,1-.624,1.568,1.863,1.863,0,0,1-1.456.736,1.706,1.706,0,0,1-.384-.032q-1.664-.384-2.848-.56a16.975,16.975,0,0,0-2.5-.176,11.859,11.859,0,0,0-6.912,1.968,12.029,12.029,0,0,0-4.256,5.2A17.275,17.275,0,0,0,6.5-9.28,7.112,7.112,0,0,0,7.568-5.072a3.3,3.3,0,0,0,2.8,1.488,4.524,4.524,0,0,0,3.424-1.6,14.8,14.8,0,0,0,2.688-5.184,76.806,76.806,0,0,0,2.4-9.728,1.7,1.7,0,0,1,.768-1.216,3.162,3.162,0,0,1,1.536-.32q2.272,0,2.272,1.472a2.734,2.734,0,0,1-.1.64q-.832,3.1-1.52,6.864a34.568,34.568,0,0,0-.688,5.712,4.729,4.729,0,0,0,.512,2.512,1.743,1.743,0,0,0,1.568.784,3.228,3.228,0,0,0,1.952-.688A15.488,15.488,0,0,0,27.52-6.688a1.123,1.123,0,0,1,.864-.448.739.739,0,0,1,.656.384A1.985,1.985,0,0,1,29.28-5.7a3.02,3.02,0,0,1-.608,1.984A14.525,14.525,0,0,1,25.6-.832,6.538,6.538,0,0,1,21.92.16a5.059,5.059,0,0,1-3.616-1.3A6.08,6.08,0,0,1,16.576-4.8Q14.208.16,9.6.16Zm23.04.7A3.757,3.757,0,0,1,30.1.1a2.26,2.26,0,0,1-.88-1.728,1.968,1.968,0,0,1,.608-1.44,2.43,2.43,0,0,1,1.792-.608,7.022,7.022,0,0,1,.976.08q.56.08.848.112a4.12,4.12,0,0,0-.368-1.568,7.834,7.834,0,0,0-.848-1.424q-.512-.688-.96-1.2A20.908,20.908,0,0,1,29.3-4.544a23.439,23.439,0,0,1-2.128,2.368,1.713,1.713,0,0,1-1.216.576,1.051,1.051,0,0,1-.832-.368,1.34,1.34,0,0,1-.32-.912,1.824,1.824,0,0,1,.448-1.184l.416-.512A41.355,41.355,0,0,0,28.32-8.16q.544-.928,1.28-2.48t1.44-3.216a2.463,2.463,0,0,1,2.528-1.408,3.357,3.357,0,0,1,1.248.16.533.533,0,0,1,.352.512,2.355,2.355,0,0,1-.128.608,4.624,4.624,0,0,1-.352.832,4.563,4.563,0,0,0-.576,1.952,2.13,2.13,0,0,0,.336,1.056,11.985,11.985,0,0,0,1.04,1.44A20.329,20.329,0,0,1,37.04-6.416a4.157,4.157,0,0,1,.528,2.064,8.669,8.669,0,0,1-.064.9,10.2,10.2,0,0,0,3.68-3.232,1.123,1.123,0,0,1,.864-.448.739.739,0,0,1,.656.384,1.985,1.985,0,0,1,.24,1.056,3.1,3.1,0,0,1-.608,1.984,9.759,9.759,0,0,1-3.056,2.7,8.675,8.675,0,0,1-3.6.784A4.542,4.542,0,0,1,32.64.864Zm26.208-8a.739.739,0,0,1,.656.384,1.985,1.985,0,0,1,.24,1.056,2.942,2.942,0,0,1-.608,1.984A15.545,15.545,0,0,1,56.224-.9,5.825,5.825,0,0,1,52.736.16a5.571,5.571,0,0,1-3.968-1.408,4.886,4.886,0,0,1-1.5-3.744,1.851,1.851,0,0,1,1.28-1.792,5.71,5.71,0,0,0,2.016-1.3,2.447,2.447,0,0,0,.608-1.68,1.325,1.325,0,0,0-.24-.864.742.742,0,0,0-.592-.288,2.771,2.771,0,0,0-1.9,1.248A14.229,14.229,0,0,0,46.5-6.448,23.041,23.041,0,0,0,45.088-2.4a4.99,4.99,0,0,1-.816,2.032A1.841,1.841,0,0,1,42.816.16,1.607,1.607,0,0,1,41.36-.56a5.242,5.242,0,0,1-.624-2.224q-.16-1.5-.16-4.416a55.423,55.423,0,0,1,1.008-10.272,30.869,30.869,0,0,1,2.976-8.976q1.968-3.632,4.72-3.632a2.812,2.812,0,0,1,2.384,1.264,5.475,5.475,0,0,1,.912,3.28,14.023,14.023,0,0,1-1.888,6.7,43.349,43.349,0,0,1-6.144,8.112q-.1,1.664-.1,3.424a15.153,15.153,0,0,1,3.52-5.808,5.741,5.741,0,0,1,3.712-1.808,3.294,3.294,0,0,1,2.576,1.088,3.878,3.878,0,0,1,.976,2.688,6.1,6.1,0,0,1-.9,3.232A7.663,7.663,0,0,1,51.264-5.28a2.12,2.12,0,0,0,.784,1.392,2.447,2.447,0,0,0,1.584.528,2.986,2.986,0,0,0,1.92-.768,21.144,21.144,0,0,0,2.432-2.56A1.123,1.123,0,0,1,58.848-7.136ZM48.608-26.912q-.576,0-1.28,1.648a27.925,27.925,0,0,0-1.36,4.448,59.4,59.4,0,0,0-1.072,6.1,22.9,22.9,0,0,0,3.28-5.088,11.882,11.882,0,0,0,1.3-4.992,4.284,4.284,0,0,0-.224-1.568Q49.024-26.912,48.608-26.912Zm12.736,9.888a2.87,2.87,0,0,1-2.016-.624,2.262,2.262,0,0,1-.672-1.744,2.364,2.364,0,0,1,.88-1.872,3.256,3.256,0,0,1,2.192-.752,3.026,3.026,0,0,1,1.92.576,1.952,1.952,0,0,1,.736,1.632,2.6,2.6,0,0,1-.832,2.032A3.167,3.167,0,0,1,61.344-17.024ZM61.088.16a3.325,3.325,0,0,1-3.024-1.472,7.146,7.146,0,0,1-.944-3.9,23.9,23.9,0,0,1,.368-3.7,34.51,34.51,0,0,1,.944-4.208,2.711,2.711,0,0,1,.768-1.408,2.461,2.461,0,0,1,1.536-.384q1.632,0,1.632,1.088a25.09,25.09,0,0,1-.608,3.712,27.675,27.675,0,0,0-.768,4.768,3.375,3.375,0,0,0,.256,1.472.891.891,0,0,0,.864.512,2.409,2.409,0,0,0,1.44-.8,28.642,28.642,0,0,0,2.3-2.528,1.123,1.123,0,0,1,.864-.448.739.739,0,0,1,.656.384,1.985,1.985,0,0,1,.24,1.056,2.942,2.942,0,0,1-.608,1.984Q63.84.16,61.088.16ZM79.3-7.136a.739.739,0,0,1,.656.384,1.985,1.985,0,0,1,.24,1.056,2.942,2.942,0,0,1-.608,1.984A11.69,11.69,0,0,1,76.24-1.056,9.276,9.276,0,0,1,71.616.16,7.125,7.125,0,0,1,66.4-1.664a6.68,6.68,0,0,1-1.856-4.992,9.26,9.26,0,0,1,.928-4.112,7.6,7.6,0,0,1,2.576-3.024,6.478,6.478,0,0,1,3.728-1.12,4.055,4.055,0,0,1,2.976,1.1,4.01,4.01,0,0,1,1.12,2.992,5.174,5.174,0,0,1-1.584,3.792,11.454,11.454,0,0,1-5.36,2.512,3.142,3.142,0,0,0,3.04,1.472,7,7,0,0,0,3.28-1.008,10.833,10.833,0,0,0,3.184-2.64A1.123,1.123,0,0,1,79.3-7.136Zm-8.064-4.64a2.345,2.345,0,0,0-2,1.376,6.414,6.414,0,0,0-.816,3.328v.064a7.272,7.272,0,0,0,2.976-1.344,2.641,2.641,0,0,0,1.088-2.08,1.391,1.391,0,0,0-.336-.976A1.174,1.174,0,0,0,71.232-11.776ZM94.624-9.824a.7.7,0,0,1,.64.416,2.213,2.213,0,0,1,.224,1.056,2.731,2.731,0,0,1-.224,1.232,1.181,1.181,0,0,1-.7.592,14.569,14.569,0,0,1-4.224.768A8.294,8.294,0,0,1,87.92-1.472,5.67,5.67,0,0,1,84,.16,5.07,5.07,0,0,1,79.3-2.3Q77.824-4.768,77.824-9.44a43.634,43.634,0,0,1,1.024-8.976,28.054,28.054,0,0,1,2.992-8.256q1.968-3.408,4.688-3.408A2.771,2.771,0,0,1,88.9-28.816a5.547,5.547,0,0,1,.9,3.28A14.5,14.5,0,0,1,88.8-20.32a20.467,20.467,0,0,1-3.3,5.44A4.821,4.821,0,0,1,88.992-13.1a7.3,7.3,0,0,1,1.6,3.984,19.4,19.4,0,0,0,3.584-.64A1.418,1.418,0,0,1,94.624-9.824ZM85.792-26.912q-.64,0-1.392,1.9a30.625,30.625,0,0,0-1.392,5.168,65.049,65.049,0,0,0-.96,7.136q2.112-3.872,3.376-6.832A13.655,13.655,0,0,0,86.688-24.8a4.023,4.023,0,0,0-.24-1.568Q86.208-26.912,85.792-26.912ZM84.128-3.232a2.338,2.338,0,0,0,1.76-.832,4.54,4.54,0,0,0,1.024-2.4,4.418,4.418,0,0,1-1.52-1.76,5.21,5.21,0,0,1-.528-2.3,7.835,7.835,0,0,1,.128-1.216h-.1a2.588,2.588,0,0,0-2.192,1.3,6.088,6.088,0,0,0-.88,3.472,4.746,4.746,0,0,0,.688,2.784A1.973,1.973,0,0,0,84.128-3.232ZM96.672.16A3.892,3.892,0,0,1,93.5-1.28,5.755,5.755,0,0,1,92.32-5.056,10.4,10.4,0,0,1,93.5-9.9a10.107,10.107,0,0,1,3.152-3.68,7.108,7.108,0,0,1,4.176-1.392,1.246,1.246,0,0,1,.944.272,2.3,2.3,0,0,1,.4.976,7.513,7.513,0,0,1,1.408-.128q1.568,0,1.568,1.12a24.009,24.009,0,0,1-.48,3.2,31.058,31.058,0,0,0-.736,5.12,1.161,1.161,0,0,0,.24.768.774.774,0,0,0,.624.288,2.432,2.432,0,0,0,1.472-.784,27.374,27.374,0,0,0,2.336-2.544,1.123,1.123,0,0,1,.864-.448.739.739,0,0,1,.656.384,1.985,1.985,0,0,1,.24,1.056,2.942,2.942,0,0,1-.608,1.984A16.12,16.12,0,0,1,106.976-.96,4.746,4.746,0,0,1,104.128.16a2.989,2.989,0,0,1-1.936-.72,4.388,4.388,0,0,1-1.328-1.968A4.864,4.864,0,0,1,96.672.16Zm1.152-3.232A1.756,1.756,0,0,0,99.168-3.9a5.4,5.4,0,0,0,.928-2.208L101.28-12a3.876,3.876,0,0,0-2.48,1.008,6.79,6.79,0,0,0-1.808,2.576,8.67,8.67,0,0,0-.672,3.392,2.267,2.267,0,0,0,.4,1.472A1.359,1.359,0,0,0,97.824-3.072ZM124.8-9.824a.7.7,0,0,1,.64.416,2.213,2.213,0,0,1,.224,1.056,2.731,2.731,0,0,1-.224,1.232,1.181,1.181,0,0,1-.7.592,14.569,14.569,0,0,1-4.224.768A8.294,8.294,0,0,1,118.1-1.472,5.67,5.67,0,0,1,114.176.16a5.07,5.07,0,0,1-4.7-2.464Q108-4.768,108-9.44a43.634,43.634,0,0,1,1.024-8.976,28.054,28.054,0,0,1,2.992-8.256q1.968-3.408,4.688-3.408a2.771,2.771,0,0,1,2.368,1.264,5.547,5.547,0,0,1,.9,3.28,14.5,14.5,0,0,1-.992,5.216,20.467,20.467,0,0,1-3.3,5.44,4.821,4.821,0,0,1,3.488,1.776,7.3,7.3,0,0,1,1.6,3.984,19.4,19.4,0,0,0,3.584-.64A1.418,1.418,0,0,1,124.8-9.824Zm-8.832-17.088q-.64,0-1.392,1.9a30.625,30.625,0,0,0-1.392,5.168,65.049,65.049,0,0,0-.96,7.136q2.112-3.872,3.376-6.832a13.655,13.655,0,0,0,1.264-5.264,4.023,4.023,0,0,0-.24-1.568Q116.384-26.912,115.968-26.912ZM114.3-3.232a2.338,2.338,0,0,0,1.76-.832,4.54,4.54,0,0,0,1.024-2.4,4.418,4.418,0,0,1-1.52-1.76,5.21,5.21,0,0,1-.528-2.3,7.835,7.835,0,0,1,.128-1.216h-.1a2.588,2.588,0,0,0-2.192,1.3A6.088,6.088,0,0,0,112-6.976a4.746,4.746,0,0,0,.688,2.784A1.973,1.973,0,0,0,114.3-3.232Zm19.808-11.68a1.962,1.962,0,0,1,1.024.192.712.712,0,0,1,.288.64q0,.768-.832,5.472-.736,4.512-.864,5.344A52.487,52.487,0,0,1,130.464,9.76q-2.08,4.8-5.536,4.8a3.625,3.625,0,0,1-2.656-1.008,3.54,3.54,0,0,1-1.024-2.64,7.612,7.612,0,0,1,.688-3.072,13.9,13.9,0,0,1,2.56-3.6,42.41,42.41,0,0,1,5.3-4.656l.1-.736q.224-1.184.512-3.392a8.128,8.128,0,0,1-1.792,3.5,3.37,3.37,0,0,1-2.432,1.2,2.75,2.75,0,0,1-2.352-1.328,5.716,5.716,0,0,1-.912-3.312,27.942,27.942,0,0,1,.32-4.4,27.62,27.62,0,0,1,1.056-4.24,2.677,2.677,0,0,1,.9-1.376,3.154,3.154,0,0,1,1.824-.416,1.579,1.579,0,0,1,.976.224.82.82,0,0,1,.272.672,13.283,13.283,0,0,1-.352,1.728q-.32,1.184-.512,2.144-.256,1.312-.448,2.512a12.958,12.958,0,0,0-.192,1.968q0,1.216.672,1.216.48,0,1.2-.96A14.109,14.109,0,0,0,130.16-8.32a38.918,38.918,0,0,0,1.584-4.8,2.516,2.516,0,0,1,.784-1.376A2.531,2.531,0,0,1,134.112-14.912ZM125.28,11.456q.8,0,1.792-1.856a27.106,27.106,0,0,0,1.984-6.176,18.211,18.211,0,0,0-3.568,3.792,5.765,5.765,0,0,0-1.1,2.992,1.741,1.741,0,0,0,.208.9A.736.736,0,0,0,125.28,11.456Z" transform="translate(-1.792 30.08)" fill="#00a988"/>
</svg>
